<svg xmlns="http://www.w3.org/2000/svg" width="200" height="370" viewBox="0 0 200 370">
  <!-- 5 frames stacked vertically, each 200x74 -->
  <defs>
    <g id="alien1">
      <rect x="84" y="16" width="8" height="8" fill="#7CFC00"/>
      <rect x="108" y="16" width="8" height="8" fill="#7CFC00"/>
      <rect x="76" y="24" width="8" height="8" fill="#7CFC00"/>
      <rect x="92" y="24" width="8" height="8" fill="#7CFC00"/>
      <rect x="100" y="24" width="8" height="8" fill="#7CFC00"/>
      <rect x="116" y="24" width="8" height="8" fill="#7CFC00"/>
      <rect x="68" y="32" width="8" height="8" fill="#7CFC00"/>
      <rect x="76" y="32" width="8" height="8" fill="#7CFC00"/>
      <rect x="84" y="32" width="8" height="8" fill="#7CFC00"/>
      <rect x="92" y="32" width="8" height="8" fill="#7CFC00"/>
      <rect x="100" y="32" width="8" height="8" fill="#7CFC00"/>
      <rect x="108" y="32" width="8" height="8" fill="#7CFC00"/>
      <rect x="116" y="32" width="8" height="8" fill="#7CFC00"/>
      <rect x="124" y="32" width="8" height="8" fill="#7CFC00"/>
      <rect x="132" y="32" width="8" height="8" fill="#7CFC00"/>
      <rect x="76" y="40" width="8" height="8" fill="#7CFC00"/>
      <rect x="92" y="40" width="8" height="8" fill="#7CFC00"/>
      <rect x="108" y="40" width="8" height="8" fill="#7CFC00"/>
      <rect x="124" y="40" width="8" height="8" fill="#7CFC00"/>
      <rect x="84" y="48" width="8" height="8" fill="#7CFC00"/>
      <rect x="116" y="48" width="8" height="8" fill="#7CFC00"/>
    </g>
    <g id="alien2">
      <use href="#alien1"/>
      <!-- arms down variant -->
      <rect x="60" y="40" width="8" height="8" fill="#7CFC00"/>
      <rect x="140" y="40" width="8" height="8" fill="#7CFC00"/>
    </g>
  </defs>

  <!-- Frame 1 (y 0) -->
  <rect x="0" y="0" width="200" height="74" fill="#141827"/>
  <use href="#alien1" x="0" y="0"/>
  <!-- Frame 2 (y 74) -->
  <rect x="0" y="74" width="200" height="74" fill="#141827"/>
  <use href="#alien2" x="0" y="74"/>
  <!-- Frame 3 (y 148) -->
  <rect x="0" y="148" width="200" height="74" fill="#141827"/>
  <use href="#alien1" x="0" y="148"/>
  <!-- Frame 4 (y 222) -->
  <rect x="0" y="222" width="200" height="74" fill="#141827"/>
  <use href="#alien2" x="0" y="222"/>
  <!-- Frame 5 (y 296) -->
  <rect x="0" y="296" width="200" height="74" fill="#141827"/>
  <use href="#alien1" x="0" y="296"/>
</svg>

